<svg baseProfile="full" height="314.244088459586px" version="1.1" width="454.6923620196762px" xmlns="http://www.w3.org/2000/svg" xmlns:ev="http://www.w3.org/2001/xml-events" xmlns:xlink="http://www.w3.org/1999/xlink"><defs /><polygon fill="lightblue" points="61.6,191.3 194.9,197.7 180.3,281.0 84.6,275.9 61.6,191.3" stroke="black" stroke-width="1" /><polygon fill="lightgreen" points="61.6,20.0 194.9,26.399999999999977 194.8280648585066,27.89827411891758 61.52806485850658,21.498274118917603 61.6,20.0" stroke="black" stroke-width="1" /><polygon fill="lightgreen" points="194.9,20.0 279.4697936618034,20.0 279.4697936618034,21.5 194.9,21.5 194.9,20.0" stroke="black" stroke-width="1" /><polygon fill="lightgreen" points="279.4697936618034,20.0 375.30559073158315,20.0 375.30559073158315,21.5 279.4697936618034,21.5 279.4697936618034,20.0" stroke="black" stroke-width="1" /><polygon fill="lightgreen" points="375.30559073158315,20.0 462.97633841859675,20.0 462.97633841859675,21.5 375.30559073158315,21.5 375.30559073158315,20.0" stroke="black" stroke-width="1" /><polygon fill="lightyellow" points="69.17454289581977,27.89827411891758 187.3351367927097,27.89827411891758 194.9816148300229,14.654185659331578 61.52806485850658,14.654185659331578 69.17454289581977,27.89827411891758" stroke="black" stroke-dasharray="2,2" stroke-width="1" /><polygon fill="lightyellow" points="61.52806485850658,20.0 194.9816148300229,20.0 187.3351367927097,6.755911540413997 69.17454289581977,6.755911540413997 61.52806485850658,20.0" stroke="black" stroke-dasharray="2,2" stroke-width="1" /><polygon fill="lightyellow" points="181.655911540414,27.646478037313194 181.655911540414,13.853521962686807 168.411823080828,21.5 168.411823080828,20.0 181.655911540414,27.646478037313194" stroke="black" stroke-dasharray="2,2" stroke-width="1" /><polygon fill="lightyellow" points="292.7138821213894,20.0 292.7138821213894,21.5 279.4697936618034,13.853521962686807 279.4697936618034,27.646478037313194 292.7138821213894,20.0" stroke="black" stroke-dasharray="2,2" stroke-width="1" /><polygon fill="lightyellow" points="287.1162716991166,21.5 367.65911269427,21.5 375.30559073158315,8.255911540413997 279.4697936618034,8.255911540413997 287.1162716991166,21.5" stroke="black" stroke-dasharray="2,2" stroke-width="1" /><polygon fill="lightyellow" points="279.4697936618034,20.0 375.30559073158315,20.0 367.65911269427,6.755911540413997 287.1162716991166,6.755911540413997 279.4697936618034,20.0" stroke="black" stroke-dasharray="2,2" stroke-width="1" /><polygon fill="lightyellow" points="362.06150227199714,27.646478037313194 362.06150227199714,13.853521962686807 348.81741381241113,21.5 348.81741381241113,20.0 362.06150227199714,27.646478037313194" stroke="black" stroke-dasharray="2,2" stroke-width="1" /><polygon fill="lightyellow" points="476.22042687818276,20.0 476.22042687818276,21.5 462.97633841859675,13.853521962686807 462.97633841859675,27.646478037313194 476.22042687818276,20.0" stroke="black" stroke-dasharray="2,2" stroke-width="1" /></svg>