<svg baseProfile="full" height="216.44833151405166px" version="1.1" width="390.59625589574284px" xmlns="http://www.w3.org/2000/svg" xmlns:ev="http://www.w3.org/2001/xml-events" xmlns:xlink="http://www.w3.org/1999/xlink"><defs /><polygon fill="lightblue" points="75.5,91.2 61.6,182.9 192.5,160.5 174.6,84.1 75.5,91.2" stroke="black" stroke-width="1" /><polygon fill="lightgreen" points="75.5,20.0 61.60000000000001,111.7 60.11694126465897,111.47519611318168 74.01694126465895,19.775196113181675 75.5,20.0" stroke="black" stroke-width="1" /><polygon fill="lightgreen" points="75.5,19.775196113181675 208.30274846553442,19.775196113181675 208.30274846553442,21.275196113181675 75.5,21.275196113181675 75.5,19.775196113181675" stroke="black" stroke-width="1" /><polygon fill="lightgreen" points="208.30274846553442,19.775196113181675 286.77165950678693,19.775196113181675 286.77165950678693,21.275196113181675 208.30274846553442,21.275196113181675 208.30274846553442,19.775196113181675" stroke="black" stroke-width="1" /><polygon fill="lightgreen" points="286.77165950678693,19.775196113181675 386.1256730140429,19.775196113181675 386.1256730140429,21.275196113181675 286.77165950678693,21.275196113181675 286.77165950678693,19.775196113181675" stroke="black" stroke-width="1" /><polygon fill="lightyellow" points="67.80928352679754,111.7 145.17210570755265,111.7 152.8644479696912,98.37647237276667 60.11694126465897,98.37647237276667 67.80928352679754,111.7" stroke="black" stroke-dasharray="2,2" stroke-width="1" /><polygon fill="lightyellow" points="60.11694126465897,19.775196113181675 152.8644479696912,19.775196113181675 145.17210570755265,6.45166848594835 67.80928352679754,6.45166848594835 60.11694126465897,19.775196113181675" stroke="black" stroke-dasharray="2,2" stroke-width="1" /><polygon fill="lightyellow" points="62.176472372766675,27.46753837532025 62.176472372766675,13.582853851043101 48.85294474553335,21.275196113181675 48.85294474553335,19.775196113181675 62.176472372766675,27.46753837532025" stroke="black" stroke-dasharray="2,2" stroke-width="1" /><polygon fill="lightyellow" points="221.62627609276774,19.775196113181675 221.62627609276774,21.275196113181675 208.30274846553442,13.582853851043101 208.30274846553442,27.46753837532025 221.62627609276774,19.775196113181675" stroke="black" stroke-dasharray="2,2" stroke-width="1" /><polygon fill="lightyellow" points="215.995090727673,21.275196113181675 279.07931724464834,21.275196113181675 286.77165950678693,7.95166848594835 208.30274846553442,7.95166848594835 215.995090727673,21.275196113181675" stroke="black" stroke-dasharray="2,2" stroke-width="1" /><polygon fill="lightyellow" points="208.30274846553442,19.775196113181675 286.77165950678693,19.775196113181675 279.07931724464834,6.45166848594835 215.995090727673,6.45166848594835 208.30274846553442,19.775196113181675" stroke="black" stroke-dasharray="2,2" stroke-width="1" /><polygon fill="lightyellow" points="273.4481318795536,27.46753837532025 273.4481318795536,13.582853851043101 260.1246042523203,21.275196113181675 260.1246042523203,19.775196113181675 273.4481318795536,27.46753837532025" stroke="black" stroke-dasharray="2,2" stroke-width="1" /><polygon fill="lightyellow" points="399.4492006412762,19.775196113181675 399.4492006412762,21.275196113181675 386.1256730140429,13.582853851043101 386.1256730140429,27.46753837532025 399.4492006412762,19.775196113181675" stroke="black" stroke-dasharray="2,2" stroke-width="1" /></svg>